<?xml version="1.0" encoding="utf-8" ?>
<svg baseProfile="full" height="300mm" version="1.1" viewBox="0,0,200,300" width="200mm" xmlns="http://www.w3.org/2000/svg" xmlns:ev="http://www.w3.org/2001/xml-events" xmlns:xlink="http://www.w3.org/1999/xlink"><defs /><rect fill="#222222" height="300" width="200" x="0" y="0" /><text fill="#FFFFFF" style="font-size:12px; font-family:Arial; font-weight:bold;" x="10" y="20">Over 10km Runs</text><text fill="#FFFFFF" style="font-size:4px; font-family:Arial" x="10" y="280">Runner</text><text fill="#FFFFFF" style="font-size:9px; font-family:Arial" x="10" y="290">johnny</text><text fill="#FFFFFF" style="font-size:4px; font-family:Arial" x="65" y="280">SPECIAL TRACKS</text><rect fill="yellow" height="2.6" width="2.6" x="65" y="283" /><text fill="#FFFFFF" style="font-size:3px; font-family:Arial" x="70" y="285.5">Over 20.0 km</text><rect fill="red" height="2.6" width="2.6" x="65" y="287" /><text fill="#FFFFFF" style="font-size:3px; font-family:Arial" x="70" y="289.5">Over 40.0 km</text><text fill="#FFFFFF" style="font-size:4px; font-family:Arial" x="120" y="280">STATISTICS</text><text fill="#FFFFFF" style="font-size:3px; font-family:Arial" x="120" y="285">Number: 3</text><text fill="#FFFFFF" style="font-size:3px; font-family:Arial" x="120" y="290">Weekly: 1.0</text><text fill="#FFFFFF" style="font-size:3px; font-family:Arial" x="141" y="285">Total: 46.5 km</text><text fill="#FFFFFF" style="font-size:3px; font-family:Arial" x="141" y="290">Avg: 15.5 km</text><text fill="#FFFFFF" style="font-size:3px; font-family:Arial" x="167" y="285">Min: 10.1 km</text><text fill="#FFFFFF" style="font-size:3px; font-family:Arial" x="167" y="290">Max: 21.3 km</text><polyline fill="none" opacity="1" points="62.937933890149,106.38757070433348 70.66132902912796,77.53142634918913 77.52656915225089,55.256384966894984 72.37763906084001,43.10631724866107 56.930848782882094,39.056287593673915 48.34929862804711,43.10631724866107 38.48051595129073,76.0126769291237 32.04435333609581,98.79386593215168 39.338670967146754,109.42504912894219 50.06560866162181,114.48750874120742 62.50885638408363,110.437541492749 68.08686398342252,98.28761850390583 75.81025912240148,65.38141705421731 78.38472416810691,53.73762824526057 70.23225152119994,41.08130286401138 55.214538753032684,38.04377962695435 45.34575607441366,45.637583984062076 37.622360937297344,70.95017526997253 31.61527583003044,95.25013277726248 35.47697339951992,105.88132410589606 47.92022112198174,114.99375439761207 58.218081306666136,112.96877143858 65.51239893585443,101.32510223891586 68.94501899927855,83.10016995714977 76.23933662846684,64.3689148412086 76.66841413639486,50.19386062398553 70.23225152119994,41.08130286401138 58.218081306666136,37.03127143951133 49.63653115183115,41.58755654376 41.91313601471484,59.81265214504674 38.909593461081386,67.40642081666738 35.47697339951992,78.03767604380846 31.61527583003044,100.31260788207874 48.34929862804711,115.5 63.36701139807701,108.41255654068664 68.94501899927855,91.70639691315591 75.38118161447346,66.39391904650256 76.66841413639486,54.75013278052211 74.09394909068942,42.600063734687865 54.78546124510467,38.04377962695435 41.91313601471484,58.29389691585675 34.61881838180125,83.10016995714977 35.47697339951992,106.38757070433348 45.34575607441366,113.98126302985474 58.64715881459415,111.45003363629803 62.50885638408363,105.88132410589606 68.94501899927855,80.56892369221896 76.66841413639486,57.787645062897354 74.52302659861743,47.1563433627598 66.79963145963848,39.56254149507731 55.214538753032684,39.56254149507731 42.342213520780206,53.73762824526057 35.90605090558529,79.55642479844391 34.61881838180125,88.6689068726264 33.331585858017206,104.86883074510843 41.91313601471484,112.96877143858 56.501771273091435,113.47501726076007 64.22516641393304,106.38757070433348 66.37055395357311,95.25013277726248 73.66487158089876,70.95017526997253 77.52656915225089,49.687607885338366 65.51239893585443,38.55003363871947 51.352841183543205,41.58755654376 45.34575607441366,55.256384966894984 39.76774847507477,77.53142634918913 32.90250835195184,96.76887589041144 33.331585858017206,104.86883074510843 41.054980996996164,113.47501726076007 62.079778876155615,108.91880286065862 66.79963145963848,91.70639691315591 75.38118161447346,63.86266365274787 77.09749164618552,49.687607885338366 70.23225152119994,40.068795340601355 57.35992629081011,38.04377962695435 47.06206610612571,43.612570707220584 43.20036853663623,52.725123486015946 41.054980996996164,64.87516597472131 33.760663367807865,82.5939208152704 32.04435333609581,98.79386593215168 36.76420592330396,108.91880286065862 52.640073703601956,114.99375439761207 63.36701139807701,107.9063101648353 65.51239893585443,93.73138916911557 71.948561552912,69.43142369249836 76.66841413639486,55.76263709599152 74.52302659861743,45.637583984062076 64.22516641393304,37.537525560706854 55.214538753032684,39.056287593673915 46.203911090269685,47.662596377078444 39.338670967146754,73.4814267908223 35.04789588972926,82.5939208152704 32.04435333609581,102.33759637316689 38.909593461081386,111.45003363629803 56.07269376888871,113.47501726076007 63.796088906005025,103.85633716359735 71.948561552912,76.0126769291237 75.81025912240148,50.19386062398553 67.22870896570385,39.56254149507731 57.78900379873812,38.04377962695435 45.34575607441366,50.19386062398553 38.909593461081386,66.39391904650256 35.47697339951992,87.1501611052081 32.90250835195184,104.36258398229256 45.774833584204316,113.47501726076007 59.07623632065952,111.95627962471917 63.796088906005025,99.30011330498382 71.09040653519332,80.06267427373677 76.66841413639486,57.787645062897354 76.23933662846684,50.19386062398553 68.08686398342252,39.056287593673915 55.214538753032684,38.04377962695435 44.91667856834829,48.67510224180296 40.62590348906815,63.86266365274787 32.473430844023824,94.23763709375635 34.61881838180125,106.89381724596024 47.491143614053726,113.98126302985474 57.35992629081011,112.46252555958927 65.08332142978907,106.38757070433348 68.51594148948789,86.13766365032643 73.66487158089876,70.44392479909584 76.23933662846684,57.28139315498993 73.23579407669604,43.612570707220584 68.08686398342252,39.56254149507731 52.640073703601956,40.57504912978038 44.91667856834829,49.687607885338366 42.77129102870822,63.86266365274787 36.3351284135133,83.10016995714977 33.760663367807865,89.68140377476811 38.48051595129073,108.41255654068664 49.63653115183115,112.96877143858 61.650701366364956,109.42504912894219 68.08686398342252,89.17515535186976 76.23933662846684,56.77514118980616 72.80671656690538,44.625077455770224 54.78546124510467,42.09381016669795 45.34575607441366,53.23137589264661 35.04789588972926,82.5939208152704 33.331585858017206,99.30011330498382 41.91313601471484,111.95627962471917 53.069151213392615,112.46252555958927 67.22870896570385,90.6939004547894 75.81025912240148,59.81265214504674 74.52302659861743,44.625077455770224 61.22162386216223,37.537525560706854 49.63653115183115,42.600063734687865 44.48760105855763,50.19386062398553 39.338670967146754,68.4189223642461 32.473430844023824,96.76887589041144 35.90605090558529,108.91880286065862 50.49468616582453,114.48750874120742 65.51239893585443,102.84384336043149 72.37763906084001,74.49392701266333 77.9556466601789,52.725123486015946 73.66487158089876,43.612570707220584 58.218081306666136,37.03127143951133 47.491143614053726,45.131330747157335 42.342213520780206,58.80014871433377 35.90605090558529,84.11266807792708 33.331585858017206,103.85633716359735 39.338670967146754,111.45003363629803 52.21099619753659,114.99375439761207 61.650701366364956,111.45003363629803 68.08686398342252,94.74388496298343 74.9521041046828,71.9626760436222 77.52656915225089,58.29389691585675 71.51948404312134,42.09381016669795 61.22162386216223,37.03127143951133 50.06560866162181,42.09381016669795 41.91313601471484,57.787645062897354 32.90250835195184,86.64391240477562 36.76420592330396,108.41255654068664 45.34575607441366,112.96877143858 64.22516641393304,106.89381724596024 68.51594148948789,89.68140377476811 72.80671656690538,68.4189223642461 77.9556466601789,51.71261850744486 65.9414764456451,36.01876303041354 47.06206610612571,43.612570707220584 41.054980996996164,63.356412407010794 37.193283427506685,80.56892369221896 32.90250835195184,99.30011330498382 38.48051595129073,110.94378759292886 46.203911090269685,112.46252555958927 56.930848782882094,112.96877143858 66.37055395357311,101.32510223891586 73.66487158089876,72.97517659701407 77.52656915225089,57.28139315498993 71.948561552912,40.068795340601355 61.650701366364956,34.5 44.48760105855763,50.19386062398553 39.338670967146754,69.43142369249836 35.90605090558529,81.07517305621877 32.473430844023824,98.79386593215168 41.054980996996164,112.46252555958927 55.214538753032684,113.47501726076007 63.796088906005025,106.38757070433348 71.09040653519332,85.12516597285867 76.66841413639486,55.256384966894984 73.66487158089876,46.143837166018784 58.64715881459415,39.056287593673915 45.34575607441366,46.143837166018784 38.909593461081386,71.9626760436222 35.04789588972926,84.61891705309972 34.189740873873234,104.86883074510843 41.91313601471484,112.46252555958927 57.35992629081011,110.94378759292886 64.22516641393304,103.85633716359735 72.37763906084001,72.97517659701407 75.81025912240148,53.23137589264661 64.22516641393304,41.58755654376 52.21099619753659,39.56254149507731 40.19682598300278,61.837658339645714 38.05143844522536,77.53142634918913 32.04435333609581,93.22514118812978 34.61881838180125,105.88132410589606 46.6329885981977,114.48750874120742 62.50885638408363,108.41255654068664 70.23225152119994,81.07517305621877 74.52302659861743,62.34390975115821 76.23933662846684,51.206365934573114 68.08686398342252,40.57504912978038 59.07623632065952,40.068795340601355 45.774833584204316,50.19386062398553 37.622360937297344,79.0501752696 32.90250835195184,91.20014871144667 37.622360937297344,110.437541492749 51.352841183543205,113.98126302985474 64.22516641393304,104.36258398229256 71.948561552912,77.0251765968278 75.81025912240148,55.76263709599152 71.51948404312134,44.11882410896942 57.78900379873812,39.056287593673915 49.207453643903136,43.612570707220584 41.48405850678682,62.850161106325686 37.622360937297344,76.5189267899841 32.90250835195184,95.75638053705916 33.331585858017206,102.33759637316689 40.19682598300278,111.45003363629803 48.77837613597512,114.48750874120742 57.35992629081011,112.96877143858 65.9414764456451,102.84384336043149 70.23225152119994,81.58142236433923 76.66841413639486,62.34390975115821 75.81025912240148,47.662596377078444 69.80317401327193,40.57504912978038 57.78900379873812,39.056287593673915 51.781918689608574,42.600063734687865 45.774833584204316,52.21887102443725 35.90605090558529,79.0501752696 32.473430844023824,98.28761850390583 40.19682598300278,109.93129533762112 51.352841183543205,112.96877143858 62.937933890149,105.37507745390758 72.37763906084001,83.10016995714977 77.52656915225089,56.26888917153701 71.51948404312134,42.600063734687865 63.796088906005025,37.03127143951133 48.77837613597512,47.1563433627598 39.76774847507477,62.34390975115821 35.47697339951992,82.5939208152704 32.04435333609581,97.78137102210894 35.04789588972926,106.89381724596024 45.774833584204316,113.98126302985474 55.64361625909805,113.47501726076007 64.65424392186105,101.83134933374822 71.51948404312134,81.07517305621877 76.66841413639486,56.77514118980616 71.51948404312134,40.57504912978038 56.930848782882094,38.55003363871947 43.62944604456425,50.19386062398553" stroke="#4DD2FF" stroke-dasharray="none" stroke-linecap="round" stroke-linejoin="round" stroke-width="0.5"><title>2026-07-03 10.1km</title><desc>9223370253774098704</desc></polyline><polyline fill="none" opacity="1" points="185.5,46.22964431888613 185.30452320209588,46.21656968739262 185.16489691790775,46.22964431888613 184.56171137007186,46.268868196722906 184.07022684960975,46.268868196722906 183.89709025720367,46.25579357355673 183.89709025720367,46.32116666163347 183.80772943529882,46.46498721106764 183.80214438392431,46.76570181980787 183.76304902436095,47.28214304698122 183.76863407570636,47.831265676348266 183.74629387023742,48.347697966517444 183.63459284286364,48.68108866336843 183.52289181548986,48.922959215633455 183.3609253258037,49.2301988175459 183.19337378474302,49.65510212404115 183.0090670895588,50.06692868476239 182.80800524030928,50.48528935503418 182.61811349375057,50.89057354407123 182.4002964903775,51.26970795147645 182.10987381922314,51.59000933883726 181.85296145625762,51.831868466266314 181.45642280907487,52.12602017898462 181.01520375095424,52.413633828542515 180.60749500105157,52.701246134998655 180.27797697027563,52.94310089853025 179.9540439909033,53.165344979046495 179.60218575465842,53.45295377511138 179.24474246706814,53.73402471006193 178.83703371716547,54.060849765723106 178.46842032682616,54.29616273199281 178.1277321933303,54.53801123271478 177.78145900848904,54.812540812523366 177.518961594149,55.0020962368435 177.42401572089875,55.07399641761003 177.1447631524643,55.35505995528729 176.85992553262622,55.525004727987834 176.49131214231602,55.806066207718686 176.06126318694442,56.11327147441261 175.69823484795052,56.413938975307246 175.32962145764031,56.71460500862668 174.93308281042846,57.00219723247574 174.50861890643137,57.32246881066749 174.32431221127626,57.51201651134761 173.9277735640935,57.825749355044536 173.5535751223797,57.95647090165585 173.190546783444,58.1068003373548 172.86661380404257,58.21791316274539 172.5706060815137,58.37477798682448 172.2690133076103,58.47935431429141 171.82779424943146,58.675434449822205 171.40333034543437,58.85190603821684 171.25811900984263,58.910729788669414 171.13524787974893,58.917265757474524 170.7442942839407,59.08066475225132 170.3812659449759,59.20484769844188 170.27514996897662,59.30288668965295 170.22488450663514,59.51857192116586 170.37568089360138,59.9303325390465 170.53206233194214,60.36169785369566 170.70519892434822,60.77345283663453 170.66610356478486,60.897632370732026 170.2695649176021,61.074097593926126 169.8451010135759,61.26363375213259 169.03526856511598,61.511990594124654 168.52144383918494,61.70806107801036 168.05229952422087,61.83223872841336 167.7730469557864,61.80609608597297 167.13635109976167,61.53813336136227 166.3656140108942,61.2048122481865 166.0528511342418,61.04141888699451 165.5613666138088,60.83227475241074 165.198338274844,60.64927305222591 165.03078673378332,60.68848774802609 164.87440529544256,61.04141888699451 164.7236089084763,61.28324090762908 164.56164241881925,61.62963295933514 164.4108460318239,61.90413093796451 164.2321243880433,62.302804395672865 164.1092532579205,62.68186856963075 163.99755223054672,62.93021969500842 163.8579259463586,62.923684151890484 163.48931255601929,62.80604425745332 162.96431772736832,62.60997726756614 162.48400330962613,62.4204452509548 162.18799558712635,62.257055113506794 161.8473074536014,62.12634269161208 161.3669930359174,62.07405764519717 160.84199820726644,62.04137946866831 160.4510446114582,62.002165633934055 160.07684616974439,62.0283081931957 159.57419154656236,62.04137946866831 159.06595187200583,62.21784141606622 158.77552920082235,62.39430285807248 158.496276632417,62.64265514253202 158.11649313935777,62.93021969500842 157.7702199544874,63.074001467975904 157.21171481761849,63.14589222861832 156.51358339653234,63.13282118746429 155.97183341375785,63.13935670839783 155.642315383011,63.106679096847074 155.49710404741927,63.13282118746429 155.22343653035932,63.13282118746429 154.82131283180206,63.14589222861832 154.45269944149186,63.13282118746429 154.01706543471664,63.13282118746429 153.5702613252215,63.13935670839783 153.11228711300646,63.126285665854084 153.00617113697808,63.23085392853682 152.91122526375693,63.538022173910576 152.73808867129264,63.9040078713806 152.6487278493878,64.17849571795887 152.51468661654508,64.49872999358558 152.37506033232785,64.81242726221171 152.31920981867006,65.16533478058773 152.2298489967361,65.37446420813649 151.9115010687383,65.38099949132084 151.62107839758391,65.38099949132084 151.302730469557,65.40060533667929 150.7609804868116,65.40714061709878 150.28066606909852,65.47902865577998 149.95673308969708,65.52477554582947 149.70540577810607,65.50516973995036 149.63838516169926,65.78618569461105 149.58253464801237,66.22404520952114 149.5434392884199,66.5573391728285 149.56577949388884,66.89716645596855 149.45407846651506,67.26313220371958 149.32562228504685,67.51799992284214 149.01844445973984,67.84475186704003 148.78945735367597,68.02119719658367 148.42084396333667,68.22378195199053 148.00755016203038,68.4786456984366 147.70037233675248,68.71390360582518 147.4099496655981,69.02104452233107 147.19213266219595,69.40006737327712 147.12511204576003,69.51115983614363 147.03016617250978,69.90978408401497 146.89612493966706,70.36068381437144 146.77325380954426,70.81811495284637 146.6112873198581,71.4846513917546 146.44373577879742,71.95514336206543 146.27059918636223,72.39295905315885 146.03044197752024,72.77849566899386 145.86289043645957,73.10521972703646 145.67299868992995,73.39273546565164 145.48310694340034,73.75212825314884 145.23177963178023,74.02003787709327 144.93018685787683,74.35328968681279 144.70119975175476,74.50357912925392 144.56715851894114,74.64079960453091 144.20971523132175,74.95444525824496 143.83551678963704,75.30076048051706 143.57860442667152,75.54252655805612 143.42222298835986,75.76468914475117 143.19323588220868,76.1436705331871 142.93632351924316,76.47691086370105 142.61239053989993,76.83628567210326 142.26611735500046,77.1499201566985 141.89750396469026,77.42434902197783 141.79138798866188,77.47008704743712 141.69644211541163,77.42434902197783 141.50655036888202,77.07151168512428 141.40601944425725,76.78401310288245 141.34458387916675,76.80361532153984 141.3222436736978,76.81668346384686 141.3836792387592,77.03230741194056 141.54564572844538,77.33287286927589 141.65176170447376,77.56156299655777 141.29431841685437,77.7706503706504 140.84751430738834,78.01240676303496 140.43422050608206,78.19535691637793 140.2722540163959,78.2737639587649 139.99300144796143,78.44364554190906 139.6020478521823,78.61352665698723 139.15524374268716,78.82914432132748 138.70285458178842,79.01862588875156 138.28397572913673,79.18197160022828 137.86509687651414,79.29958024454754 137.67520512998453,79.37145208341826 137.45738812658237,79.4759927904197 137.27308143142727,79.6066684249272 136.94914845202584,79.70467496908532 136.4967592911853,79.88108635599565 136.10022064397344,80.0248285943926 135.67017168863094,80.11630075344874 135.45235468522878,80.17510421262705 134.80448872645502,80.32537946464436 134.34651451423997,80.41685117786255 134.1789629731502,80.44298592814084 133.98907122662058,80.47565435040815 133.7042336068116,80.55405849326053 133.48083155206405,80.61286153499896 133.12338826450286,80.7108664799307 132.43084189476212,80.88727498827575 131.97286768254708,80.99834675313105 131.7438805763959,81.02448125696537 131.3194166723988,81.13555277470368 130.98431359027745,81.24009049098822 130.55426463487674,81.3446280300559 129.7891125973838,81.52103472537783 129.2976280769508,81.62557178820134 128.92901468661148,81.73010867380435 128.48779562849086,81.84117892060385 128.0968420326535,81.97838306689664 127.68913328275084,82.16785495756994 127.34286009790958,82.31812535347126 127.09153278631857,82.43572801659684 126.70616424188484,82.60559813406871 126.27053023510962,82.80160153432735 125.91867199886474,82.96493722534797 125.45511273527518,83.1740062786339 124.95245811209315,83.40267474410211 123.91363855751115,83.8861424226161 123.74608701647958,83.92534233855622 123.55619526994997,83.85347580697999 123.29369785560993,83.46147506961279 123.02561538989539,83.10213887151622 122.85806384883472,82.98453747920576 122.67934220505413,82.93227012175703 122.33306902018376,82.92573669896956 122.176687581843,82.95187038599033 122.02030614353134,83.04333820339889 121.84158449972165,83.31774084160861 121.66844790731557,83.59214225891265 121.47297110941145,83.80120918594912 121.19371854097699,83.99720878639346 120.98707164032385,84.12787484063665 120.92005102388794,84.18667447472399 120.64638350682799,84.3957393863675 120.32803557883017,84.55253760502092 120.00968765083235,84.77466773241031 119.79187064743019,84.9837306508889 119.61314900362049,85.13399418582776 119.22219540781225,85.4083875223987 118.8870923256909,85.66318024187785 118.5743294490967,85.8330414701013 118.23922636697534,86.02250151894623 117.87061297660694,86.19889483438237 117.46848927807878,86.368754587289 117.08870578499045,86.55167995188822 116.71450734327664,86.76073684715084 116.33472385021742,86.97632602827434 115.96611045987811,87.17884851201961 115.62542232641135,87.40750212995408 115.44111563122715,87.62962197576417 115.32382955250796,87.80601069529803 115.24563883335213,88.08692502215126 115.25680893607205,88.46583069229382 115.31824450110435,88.89699638239108 115.41877542575821,89.32162631349638 115.5360615045065,89.75278602203616 115.65893263462931,90.12514879978335 115.80972902156645,90.51057457090792 115.97728056262713,90.77187880876227 115.74829345650505,90.93519339535851 115.51372129903757,91.1311703286301 115.14510790869826,91.38593941115687 114.81000482657691,91.63417494112946 114.45814659033203,91.84974709106245 114.26266979242791,91.94773418293335 113.96107701852452,92.16330523721626 113.56453837134177,92.42460247502459 113.1568296214391,92.71202815843571 112.58156933047576,93.11050245909428 112.01189409085782,93.71800750583134 111.77732193339034,94.12953978416044 111.62094049504958,94.39736090357837 111.34727297801874,94.80888865085944 111.16855133420904,95.1289638900671 111.00099979311926,95.41637697575788 110.654726608278,95.95200688135446 110.40898434803239,96.31780024260661 110.15207198509597,96.67052750164657 109.88957457075594,97.08204008893154 109.70526787560084,97.38903975564608 109.50979107769672,97.82667493799454 109.32548438251251,98.29696600270472 109.22495345788775,98.58436433349198 109.14117768735741,98.81297568629452 108.86192511892295,98.8064439451191 108.69995862923679,98.8064439451191 108.43187616355135,98.78031697347615 108.23639936564723,98.76725348347827 107.89012618077686,98.73459474645279 107.43215196853271,98.66274546413479 106.96300765356864,98.59089609817238 106.31514169482398,98.47985600442917 105.87392263667425,98.38187928519255 105.57232986274175,98.35575213378979 105.22605667790049,98.32962497132394 104.8071778252488,98.31002959222315 104.58936082187574,98.31656138596736 104.59494587325025,98.49291955524313 104.59494587325025,98.603959625485 104.51675515409443,98.71499949593999 104.5055850513454,99.1852837911174 104.5055850513454,99.36817116030215 104.52792525684345,99.64250119791177 104.5614355650323,99.89723514096477 104.66196648965706,99.94948812752409 104.88536854440463,99.86457700188839 105.1087705991522,99.7731341205581 105.33217265389976,99.76007084072262 105.38802316758665,100.01480429850926 105.48296904086601,100.41976301581235 105.5388195545529,100.58958362260819 105.65052058192668,101.0467906261365 105.72871130108251,101.33417615195503 105.81807212298736,101.71300048238481 105.82365717433277,101.97425728662711 105.99679376679705,102.28776399201888 105.99120871542254,102.54901836344288 105.81248707161285,102.58167508209226 105.72871130108251,102.725364439033 105.80131696889293,103.07152378891988 105.79573191751842,103.26746218316839 105.86833758529974,103.41768119755943 106.15876025645412,103.41114994365853 106.42125767082325,103.4568687063911 106.40450251669972,103.75730544769613 106.32072674616938,103.77036788153782" stroke="yellow" stroke-dasharray="none" stroke-linecap="round" stroke-linejoin="round" stroke-width="0.5"><title>2026-06-20 21.3km</title><desc>9223370254893345104</desc></polyline><polyline fill="none" opacity="1" points="49.60192532493966,209.67994280082348 49.436738340358716,210.27316503500333 49.2479532151483,210.8525887991127 49.01197180856252,211.44580570112157 48.91757924592821,212.34252380469115 48.882182034954894,212.70120932038117 48.98837366787484,213.92900996677054 49.047369019535836,214.3980543545622 49.20075693377294,215.10161777462054 49.28335042606341,215.92933458811603 49.42493926995667,217.23987547081197 49.64912160625681,218.63317292032298 49.67271974688629,219.3505083797645 49.86150487215491,220.3023512667569 50.14468255999964,221.2817765546788 50.54585095116636,222.28878362249816 50.699238865461666,222.86815403027867 50.911622131301556,223.2681940011389 51.25379517086549,223.84756006058888 51.76115519495215,224.74419293898973 52.2331180080655,225.4614948061062 52.83487059478648,226.42708724750264 53.22423991560936,227.03402741107857 53.672604588093236,227.77890466307872 53.79059529135702,228.0271961356484 54.09737111988943,228.53757156804204 54.61653021431994,229.29623406281462 55.1828855900676,230.15144831474754 55.607652121922,230.81354582242784 56.05601679428946,231.4618463774823 56.45718518545618,232.09635018555855 56.83475543599343,232.79981819321983 57.20052661612863,233.39293533211458 57.76688199187629,234.22053613806202 58.286041086306795,235.00675204336585 58.533821563236415,235.4343411615846 59.064779727952555,236.31710136188485 59.548541611409746,237.03433962880808 59.87891558057163,237.5860586908384 60.36267746402882,238.35846146014228 60.77564492553938,239.0756885107112 61.20041145727737,239.8618751735048 61.353799371630885,240.42737493301684 61.68417334079277,240.67564234625024 61.9083556769765,241.21355345532356 62.46291198243853,241.9583497933345 62.98207107686903,242.77210389764514 63.4304357492947,243.5030990224477 63.760809718456585,244.09616753130103 64.23277253156994,244.84094742395973 64.71653441508533,245.54434675471566 65.2592916500871,246.2339502627292 65.9554367995006,246.81321439459862 66.27401169831865,247.0890535540966 66.23861448740354,247.2407648434164 66.09702564345207,248.26136348042928 65.88464237749577,248.50961599666334 65.56606747861952,248.99232787138317 65.30648793146247,249.29574585070077 64.89352046995191,250.19220394305012 64.44515579752624,251.22657101703226 64.18557625031099,251.76443865717738 63.93779577338137,252.42642655735835 63.58382366359001,253.10220241043135 63.288846905343235,253.65385357527703 62.911276654864196,254.15033763105748 62.356720349460375,254.72956664355297 61.70777148142224,255.39153951178014 60.98802819137927,255.95697201267467 60.83464027714217,256.1086729987728 60.26828490139451,256.4258654003206 59.40695276745828,256.83959346181655 58.62821412587073,257.12920232495526 57.48370430403156,257.4326013975078 56.66956845141249,257.63946399734414 55.607652121922,257.95665268064477 54.81711440987419,258.14972367593145 54.55753486271715,258.16351445041073 54.392347878136206,258.72893494907476 54.69912370661041,259.69428136222996 54.94690418348182,260.4389722910564 55.241880941728596,261.32156344875693 55.52505862957332,262.3282617064251 55.74924096575705,263.07293761627807 55.90262888011057,263.62454666389385 55.784638176788576,263.80381910274446 54.94690418348182,264.0106716110604 54.0265766979428,264.2175237917545 53.37762782990467,264.45195586720365 52.799473383813165,264.6036469858518 52.19772079709219,264.72775777010247 51.454379366419744,264.8794485684775 51.312790522468276,264.7967081548268 51.206598889490124,264.7001776060206 51.12400539725786,264.7001776060206 50.840827709354926,264.93460881512146 50.07388813805301,265.1276694949338 49.35414484812645,265.2793598288117 48.61080341745401,265.43104998655326 48.00905083073303,265.44483999213844 47.784868494432885,264.93460881512146 47.59608336922247,264.18994351993024 47.407298243953846,263.3625326567417 47.19491497805575,262.493745608881 46.923536360496655,261.6387431891635 46.69935402425472,260.8802686154813 46.58136332099093,260.397600684184 47.18311590771191,260.20453301219095 48.1860368855414,260.02525563260133 48.799588542664424,259.8735591961449 49.63732253591297,259.68049074939336 49.84970580186928,259.69428136222996 50.12108441937016,259.63911890225427 51.01781376427971,259.44605010894884 51.67856170271989,259.26677168815513 52.76407617283985,259.046120986226 53.56641295517329,258.88063271511055 54.15636647155043,258.75651637415285 54.392347878136206,258.3703758924239 54.41594601876568,257.8739078810322 54.00297855725512,256.6051477212459 53.755198080441914,255.76389777543955 53.47202039248077,254.7985223072319 53.18884270457784,253.87451338866958 52.89386594644748,253.03324585102382 52.62248732888838,251.95751880812168 52.55169290694175,251.14382195264625 52.51629569596844,250.96453213325003 52.42190313327592,250.17841232671344 52.327510570699815,249.51641302907956 52.22131893777987,248.48203240704606 52.091529164114036,247.47522739834676 51.67856170271989,243.88928347374895 51.57237006974174,242.82727348382468 51.477977507107425,241.88938734795374 51.454379366419744,241.57215962998453 51.35998680384364,240.95149447396398 51.26559424120933,240.55150869864156 51.23019703023601,239.3515440192714 51.26559424120933,238.63431848437176 51.27739331149496,237.5722657426959 51.241996100521646,236.64813489784137 51.25379517086549,235.76537693630962 51.23019703023601,234.82744006079156 51.1947998192627,233.86190976641956 51.15940260817297,232.91016577198752 51.1947998192627,232.13773076157668 51.21839795989217,231.0756251579587 51.21839795989217,229.87557336194732 51.21839795989217,228.9927695941442 51.23019703023601,228.4548081199755 51.50157564779511,228.33066284950473 52.315711500355974,228.42722029233119 53.21244084532373,228.52377766369318 53.920385065022856,228.56515937238873 54.15636647155043,228.48239594182814 54.32155345613137,228.22031139885075 54.16816554183606,227.69614073389675 53.83779157267418,227.17196796367352 53.424824111221824,226.48226374262595 52.98825850908179,225.61323123431066 52.351108711387496,224.60624982020818 52.05613195314072,223.9992983653501 51.8673468278721,223.41993297955196 51.51337471802253,222.59226368073723 50.829028639011085,221.86115143341885 50.59304723254172,221.03347224768368 50.32166861498263,220.08163469392457 50.18007977103116,219.04702078203263 50.05028999742353,218.09516873778193 49.979495575418696,217.51577713723236 49.67271974688629,215.01884580445767 49.495733691961505,213.87382816321042 49.47213555133203,213.10128046301543 49.60192532493966,211.88726769160712 49.814308590837754,211.01813797336945 49.95589743478922,210.71463099343237 50.06208906770917,210.49389820097713 50.132883489714004,210.06622735266865 50.47505652921973,209.36263677760144 50.59304723254172,208.81079837719153 50.840827709354926,208.34173390149954 50.89982306107413,207.8174833739904 50.699238865461666,207.08628833030525 50.59304723254172,206.34129293855221 50.60484630276915,206.05157135942136 50.40426210721489,205.44453358327155 49.99129464576254,204.65813953678298 49.70811695791781,204.064891768081 49.54292997333687,203.38886195181112 49.35414484812645,202.4368956577673 49.17715879314346,201.37454825738678 49.047369019535836,200.58812967354606 48.37482201081002,199.82930022927758 48.410219221841544,199.56715812253242 48.1860368855414,198.5323815041047 48.12704153393861,197.51139386104478 48.05624711199198,195.9661000633787 48.1860368855414,194.696737889637 48.26863037783187,193.8826839064277 48.327625729492866,193.06862484189332 48.38662108115386,192.13038097265235 48.45741550310049,191.15073678795306 48.492812714132015,190.04690353682963 48.42201829212718,187.08030537483864 48.1860368855414,186.22480871617154 47.84386384609388,184.99674724949 47.619681509851944,184.52759711905674 47.33650382194901,184.5827913396788 47.383700103266165,185.05194127150753 47.58428429887863,185.81085670506582 47.867461986723356,186.81813764042454 47.60788243956631,186.95612072426593 47.05332613410428,186.99751562094025 46.074003296904266,187.3286743212666 45.00028789706994,187.7012268538674 44.327740888344124,187.89440182209364 43.84397900488693,188.0875765041419 43.69059109064983,188.44632872589864 43.784983653225936,188.80507996065717" stroke="#4DD2FF" stroke-dasharray="none" stroke-linecap="round" stroke-linejoin="round" stroke-width="0.5"><title>2026-06-14 15.1km</title><desc>9223370255419704134</desc></polyline></svg>