<?xml version="1.0" encoding="utf-8" ?>
<svg baseProfile="full" height="300mm" version="1.1" viewBox="0,0,200,300" width="200mm" xmlns="http://www.w3.org/2000/svg" xmlns:ev="http://www.w3.org/2001/xml-events" xmlns:xlink="http://www.w3.org/1999/xlink"><defs /><rect fill="#222222" height="300" width="200" x="0" y="0" /><text fill="#FFFFFF" style="font-size:12px; font-family:Arial; font-weight:bold;" x="10" y="20">Over 10km Runs</text><text fill="#FFFFFF" style="font-size:4px; font-family:Arial" x="10" y="280">Runner</text><text fill="#FFFFFF" style="font-size:9px; font-family:Arial" x="10" y="290">johnny</text><text fill="#FFFFFF" style="font-size:4px; font-family:Arial" x="65" y="280">SPECIAL TRACKS</text><rect fill="yellow" height="2.6" width="2.6" x="65" y="283" /><text fill="#FFFFFF" style="font-size:3px; font-family:Arial" x="70" y="285.5">Over 20.0 km</text><rect fill="red" height="2.6" width="2.6" x="65" y="287" /><text fill="#FFFFFF" style="font-size:3px; font-family:Arial" x="70" y="289.5">Over 40.0 km</text><text fill="#FFFFFF" style="font-size:4px; font-family:Arial" x="120" y="280">STATISTICS</text><text fill="#FFFFFF" style="font-size:3px; font-family:Arial" x="120" y="285">Number: 2</text><text fill="#FFFFFF" style="font-size:3px; font-family:Arial" x="120" y="290">Weekly: 1.0</text><text fill="#FFFFFF" style="font-size:3px; font-family:Arial" x="141" y="285">Total: 36.4 km</text><text fill="#FFFFFF" style="font-size:3px; font-family:Arial" x="141" y="290">Avg: 18.2 km</text><text fill="#FFFFFF" style="font-size:3px; font-family:Arial" x="167" y="285">Min: 15.1 km</text><text fill="#FFFFFF" style="font-size:3px; font-family:Arial" x="167" y="290">Max: 21.3 km</text><polyline fill="none" opacity="1" points="154.0,51.984944011877815 153.32237604857073,51.984944011877815 152.8215235626849,51.93321617989568 152.56373184203403,51.91597356191778 152.37959489872446,51.93321617989568 151.58412330353167,51.984944011877815 150.93596126302145,51.984944011877815 150.70763145331875,51.967701404879335 150.70763145331875,52.053914403259114 150.58978380958433,52.24358267745265 150.5824183318473,52.64016036465182 150.53085998771712,53.32123491672246 150.53822546545416,54.04540918699058 150.5087635545351,54.72647195307218 150.36145399982342,55.16614235034649 150.21414444519905,55.48511742316623 150.00054559094133,55.89030016853212 149.77958125894656,56.45065595331107 149.53652049374068,56.99376633181964 149.2713632953819,57.54549379104719 149.02093705243897,58.079976192886534 148.73368342086906,58.579972674786404 148.35067857874674,59.002381096972385 148.01186660301755,59.32134110289189 147.4889176839497,59.70926374624105 146.90704494304373,60.08856409492 146.3693650685309,60.467862672339834 145.9348018822784,60.78681692322425 145.50760417376296,61.079908914376574 145.0435790765623,61.45920286235196 144.57218850165373,61.82987478210998 144.0345086271409,62.260886515250604 143.54838709678734,62.571213546987565 143.09909295503167,62.89015953857597 142.64243333559716,63.25220482225268 142.29625588213094,63.50218752874207 142.17104276068858,63.59700835410331 141.80276887404034,63.967670518453815 141.42712950962596,64.19179100661859 140.9410079792433,64.56245045698597 140.3738661938405,64.96758792161563 139.89511014113668,65.36410348372738 139.40898861078313,65.76061711042712 138.88603969171527,66.13988920321572 138.32626338402042,66.56225831354095 138.08320261884364,66.81223083422083 137.56025369977579,67.22597676453734 137.06676669165608,67.39837028022885 136.58801063901046,67.59662237106386 136.16081293052412,67.74315621422284 135.77044261066476,67.95002707226377 135.37270681306836,68.08794068496354 134.7908340721042,68.34652807777456 134.23105776440934,68.57925602762407 134.03955534336274,68.65683186274691 133.87751483323518,68.6654513954054 133.36193139193347,68.88093941479747 132.88317533925874,69.04470992730057 132.7432312623423,69.17400220396667 132.67694196273806,69.45844448840944 132.8758098615217,70.00146790254803 133.0820432380715,70.57034568184463 133.3103730478033,71.11336166470574 133.25881470367312,71.27712767739285 132.73586578463437,71.50984723291913 132.17608947691042,71.7598045315608 131.1080952056218,72.08733362104977 130.43047125416342,72.3459082854315 129.81177112457226,72.5096718139248 129.44349723792402,72.47519530904538 128.6038327763672,72.12181029051862 127.58739684920874,71.68223165909876 127.17493009613827,71.46675106918701 126.52676805562805,71.19093508028891 126.04801200298243,70.9495953219157 125.82704767098767,71.00131104477623 125.62081429446698,71.46675106918701 125.42194639565423,71.78566213924933 125.20834754142561,72.24247851842665 125.00947964261286,72.6044821269752 124.77378435517312,73.13024640050571 124.61174384501646,73.63015025964705 124.46443429036299,73.95767181015981 124.28029734705342,73.94905283888511 123.79417581667076,73.79391119992943 123.10182090973831,73.53534114338254 122.46838982470217,73.2853893066058 122.07801950487192,73.06991296812339 121.62872536311625,72.89753148596355 120.99529427810921,72.82857879067888 120.30293937117676,72.7854833264355 119.78735592987505,72.73376873914094 119.29386892175535,72.76824513432803 118.63097592577105,72.7854833264355 117.96071745207882,73.01819856189104 117.5777126099274,73.25091313083976 117.20943872330827,73.57843620992935 116.70858623748063,73.95767181015981 116.25192661801702,74.14728894656582 115.51537884469144,74.24209734880424 114.59469412805629,74.22485946571396 113.88024278791272,74.23347840773204 113.44567960168933,74.19038368856855 113.25417718061362,74.22485946571396 112.89326877173153,74.22485946571396 112.36295437492663,74.24209734880424 111.87683284457307,74.22485946571396 111.30232558137504,74.22485946571396 110.71308736270294,74.23347840773204 110.10911818861496,74.21624052280094 109.96917411166942,74.35414349978964 109.84396099025616,74.75923214128852 109.61563118049526,75.24188831172796 109.49778353676083,75.60387855828594 109.3210120711883,76.0261984745739 109.13687512782053,76.43989748904278 109.06322035053745,76.90530636299081 108.94537270677392,77.18110295647784 108.52554047602462,77.18972158496035 108.1425356339023,77.18972158496035 107.72270340312389,77.21557746485632 107.00825206300942,77.2241960896863 106.37482097794418,77.31900090225099 105.94762326942873,77.37933117994544 105.61617677143659,77.35347535211622 105.52779103865032,77.72407476473018 105.45413626133814,78.30151699299313 105.40257791717886,78.74105981959292 105.43203982812702,79.18921868543839 105.28473027347354,79.67184854650259 105.11532428560895,80.00796407815506 104.71022301027551,80.43887939304841 104.40823842326063,80.67157271313772 103.92211689284886,80.93873829614313 103.37707154059899,81.27484858868411 102.97197026526555,81.58510300964554 102.58896542317234,81.9901556102559 102.30171179157333,82.49000497326051 102.21332605875796,82.63651196263527 102.0881129372865,83.16221133901126 101.91134147171397,83.75685079791583 101.74930096155731,84.36010377491039 101.53570210732869,85.2391215269381 101.31473777533392,85.85959892314713 101.08640796563122,86.43698335724912 100.76969242308405,86.94542297074076 100.54872809108929,87.37630150980112 100.29830184817547,87.75547273507982 100.04787560526165,88.22943427974678 99.7164291072404,88.58274926995364 99.31869330967311,89.02223650507221 99.01670872260001,89.22043585342908 98.83993725702749,89.40140005383728 98.3685466820898,89.81503099937254 97.8750596739992,90.27174605710024 97.53624769827002,90.59058335029113 97.33001432174933,90.88356786868098 97.02802973467624,91.38336255157628 96.68921775894705,91.82283464809734 96.2620200504607,92.2967724822156 95.805360430968,92.71038869809126 95.31923890061444,93.07230116103892 95.1792948236689,93.13261974825582 95.05408170222654,93.07230116103892 94.80365545928362,92.60698484138265 94.67107686010422,92.22783624166186 94.5900566050259,92.25368733872165 94.56059469410684,92.27092139886372 94.64161494915606,92.55528286370827 94.85521380341379,92.95166385238554 94.99515788035933,93.25325678843365 94.52376730542164,93.52899792248354 93.93452908680774,93.8478224430437 93.38948373455787,94.08909422225406 93.17588488027104,94.19249619418406 92.8076109936228,94.41653334895818 92.29202755235019,94.64056988645461 91.70278933367808,94.92492306437634 91.10618563729804,95.17480836955656 90.55377480731113,95.39022611976543 90.00136397735332,95.54532654656214 89.7509377344395,95.64010999507445 89.46368410284049,95.77797663206002 89.2206233376346,95.95030959960422 88.79342562909005,96.07955908559961 88.19682193273911,96.31220764268073 87.67387301367125,96.50177264151716 87.10673122826847,96.62240468342497 86.81947759666946,96.69995375873259 85.96508217960945,96.8981343929845 85.36111300552147,97.01876584692218 85.1401486734976,97.05323194374068 84.88972243055468,97.09631454422924 84.51408306619851,97.199712692287 84.21946395686246,97.27726121708838 83.74807338198298,97.40650859405287 82.83475414305576,97.63915335492493 82.23078496893868,97.78563304810086 81.92880038186559,97.8200988199169 81.36902407417074,97.96657818718813 80.92709541018121,98.10444088006625 80.35995362474932,98.24230333923333 79.3508831752988,98.47494570912386 78.7027211348177,98.61280754023028 78.21659960440593,98.75066913761839 77.63472686352907,98.89714682880003 77.11914342216915,99.07808949480386 76.58146354768542,99.32796203843463 76.12480392825091,99.52613626851235 75.79335743022966,99.68122880740702 75.28513946666499,99.90525084142428 74.71063220346696,100.16373703697172 74.24660710629541,100.3791415723681 73.63527245444129,100.65485854523286 72.9723794584861,100.956422914016 71.60240060012438,101.59401246972993 71.38143626815872,101.64570870113675 71.1310100252449,101.55093225180462 70.78483257174958,101.03396785669611 70.43128964057541,100.56008094124991 70.21032530858065,100.40499007828475 69.97463002114091,100.33606071093527 69.5179704016773,100.32744453592022 69.31173702512751,100.361909230538 69.10550364860683,100.48253554674011 68.86980836113798,100.84441342184437 68.64147855140618,101.20628968683013 68.38368683078443,101.48200385562814 68.01541294410708,101.74048504004168 67.74289026798215,101.91280537327839 67.65450453519588,101.99034940412093 67.29359612625558,102.26606091504073 66.87376389550627,102.47284393490554 66.45393166472786,102.76578564647207 66.16667803309974,103.04149452885031 65.9309827456309,103.23965971079451 65.41539930432918,103.60152531904168 64.97347064033966,103.93754194234498 64.56100388732739,104.16155225336843 64.11907522333786,104.41140918018937 63.632953692926094,104.64403390489315 63.1026392961503,104.86804227028915 62.601786810322665,105.10928135849827 62.10829980217386,105.38498229754623 61.607447316346224,105.66929791225266 61.12132578593446,105.93638137237576 60.6720316442661,106.23792616047285 60.42897087903111,106.53085431285581 60.2742958466697,106.76347297654866 60.17117915840936,107.13393836402247 60.185910113854334,107.63363319083146 60.26693036893266,108.20224770841014 60.39950896814116,108.76224297002773 60.55418400053168,109.33084959922417 60.71622451065923,109.8219157626445 60.915092409413774,110.3302091958758 61.13605674140854,110.67481310700532 60.83407215436455,110.89018981021945 60.52472208958352,111.14864110151393 60.03860055920086,111.48462655277399 59.59667189521133,111.81199565788847 59.13264679803979,112.09628881212848 58.874855077359825,112.22551264476351 58.47711927976343,112.50980435407837 57.954170360724675,112.8543990336475 57.416490486240946,113.23345149553643 56.65784627973335,113.75895312389184 55.90656755096279,114.56012120617379 55.59721748615266,115.10284348970163 55.39098410960287,115.45604176153574 55.030075700749876,115.99875806959608 54.79438041328103,116.42086825116712 54.573416081257164,116.79990409937454 54.11675646182266,117.5062843781634 53.79267544153845,117.98868689863593 53.45386346583837,118.45385804941179 53.10768601237214,118.99655436470493 52.86462524722447,119.40142068731802 52.606833526544506,119.9785670693309 52.36377276133862,120.59877951439557 52.23119416215923,120.97779590407299 52.12071199613274,121.27928495358356 51.7524381094845,121.27067099625128 51.53883925525588,121.27067099625128 51.18529632408172,121.23621515776904 50.92750460340176,121.21898723302729 50.47084498393815,121.17591740528587 49.86687580982107,121.08116370400239 49.24817568025901,120.98640989240812 48.39378026322811,120.83997196660494 47.81190752229304,120.71076181324315 47.414171724696644,120.67630573768838 46.95751210526214,120.64184964755987 46.40510127527523,120.6160075703956 46.11784764370532,120.62462159705319 46.12521312141325,120.85719997155684 46.12521312141325,121.00363786636444 46.02209643315291,121.15007549770235 46.00736547767883,121.77027901521069 46.00736547767883,122.01146799566777 46.03682738865609,122.37325012624206 46.08102025502012,122.70918923612044 46.21359885419952,122.7780996513684 46.50821796353557,122.6661201969473 46.80283707284252,122.5455267660509 47.097456182178576,122.52829911845765 47.171110959519865,122.86423758837918 47.296324080991326,123.39829076322349 47.36997885830351,123.6222475033428 47.51728841298609,124.22520489471208 47.62040510124643,124.60420439739391 47.738252744980855,125.10379195467249 47.74561822268879,125.4483333110984 47.973948032420594,125.861781013773 47.96658255471266,126.20631916183629 47.730887267243816,126.24938632777048 47.62040510124643,126.43888158737536 47.71615631176974,126.89539108306053 47.7087908340327,127.15379154970287 47.804542044556,127.35189801865636 48.18754688667832,127.34328470393666 48.533724340144545,127.403577887766 48.51162790693343,127.79978912777733 48.401145740936045,127.81701565968251 48.165450453496305,127.80840239417012 47.94448612150154,127.82562892427813 47.863465866452316,128.08402643808222" stroke="yellow" stroke-dasharray="none" stroke-linecap="round" stroke-linejoin="round" stroke-width="0.5"><title>2026-06-20 21.3km</title><desc>9223370254893345104</desc></polyline><polyline fill="none" opacity="1" points="93.51051131961867,185.76554774296528 93.52624341339106,186.7588712551369 92.80256709991954,189.57325706776464 92.58231778716436,190.36422004665656 92.3306042868644,191.1367850654642 92.0159624114749,191.9277409348142 91.89010566123761,193.1233650728973 91.84290937992046,193.60161242717004 91.98449822381372,195.23867995568435 92.06315869279206,195.86407247274474 92.26767591171665,196.80215703281283 92.37780056812335,197.90577945081168 92.56658569333376,199.65316729439655 92.86549547506729,201.51089722708275 92.89695966255385,202.46734450633812 93.14867316291202,203.7364683556516 93.52624341339106,205.04236873955233 94.06113460159395,206.3850448299927 94.26565182063496,207.15753870703338 94.54882950847968,207.69092533482763 95.00506022782065,208.46341341409425 95.68154025997501,209.65892391864327 96.31082401081221,210.61532640813675 97.11316079308745,211.90278299666534 97.63231988751795,212.71203654809506 98.23013945081038,213.7052062174189 98.38746038847603,214.03626151417848 98.79649482655805,214.71676209069847 99.48870695242658,215.72831208373827 100.24384745344287,216.86859775298217 100.81020282924874,217.75139442988439 101.40802239242475,218.61579516995698 101.94291358062765,219.4618002474017 102.44634058134397,220.39975759094523 102.9340354881715,221.19058044282428 103.68917598912958,222.29404818406329 104.38138811511453,223.34233605780173 104.71176208433462,223.91245488209825 105.41970630397554,225.08946848250343 106.06472214858513,226.04578617172956 106.50522077415371,226.78141158776998 107.1502366187051,227.81128194685152 107.70085990073858,228.76758468092885 108.26721527642803,229.81583356467308 108.47173249552725,230.5698332440079 108.91223112103762,230.90085646165244 109.21114090265473,231.61807127375505 109.95054930995684,232.61113305776962 110.64276143582538,233.69613853016926 111.24058099911781,234.67079869657755 111.68107962462818,235.46155670839653 112.31036337546539,236.45459656527964 112.95537922013318,237.39246233960148 113.67905553343007,238.31193368362437 114.6072490660008,239.08428585945512 115.032015597797,239.45207140545244 114.98481931653805,239.65435312454065 114.79603419126943,241.0151513072342 114.51285650336649,241.3461546621984 114.08808997151209,241.9897704951727 113.74198390863603,242.39432780092466 113.19136062666075,243.58960525738075 112.59354106336832,244.9687613560236 112.24743500043405,245.685918209565 111.91706103115575,246.56856874313962 111.44509821810061,247.4696032139036 111.05179587384919,248.20513810035482 110.54836887319107,248.86711684138572 109.80896046600537,249.6394221913797 108.9436953086406,250.52205268235411 107.9840375885833,251.27596268356137 107.7795203695423,251.47823066501587 107.02437986858422,251.90115386707475 105.87593702331651,252.45279128241236 104.8376188345137,252.83893643326883 103.31160573870875,253.24346852999588 102.22609126853058,253.51928532977763 100.81020282924874,253.94220357418817 99.75615254655713,254.1996315678989 99.41004648362286,254.21801926720946 99.18979717086768,254.97191326542816 99.59883160883328,256.2590418162872 99.92920557799516,257.2519630547322 100.3225079223048,258.4287512650044 100.70007817278383,259.7710156085668 100.99898795440095,260.7639168216847 101.20350517350016,261.49939555185847 101.04618423577631,261.73842547030654 99.92920557799516,262.01422881473263 98.70210226392373,262.2900317223248 97.83683710655896,262.60260782293335 97.06596451177029,262.80486264779756 96.26362772949506,262.9703436934651 95.2725058219512,263.17259809130337 95.08372069662437,263.0622775397642 94.9421318526729,262.93357014133653 94.83200719638262,262.93357014133653 94.45443694584537,263.24614508681407 93.43185085075675,263.5035593265784 92.47219313081587,263.7058131050726 91.48107122327201,263.90806664871343 90.67873444099678,263.92645332284155 90.37982465926325,263.24614508681407 90.12811115896329,262.25325802655425 89.87639765860513,261.15004354232224 89.5932199707604,259.99166081182193 89.23138181405375,258.8516575855465 88.93247203237843,257.84035815396055 88.77515109465457,257.19680091223563 89.57748787698802,256.93937734956853 90.91471584746614,256.7003408434539 91.73278472357197,256.49807892818353 92.8497633812367,256.2406543325196 93.13294106913963,256.2590418162872 93.49477922584629,256.18549186966266 94.69041835243115,255.92806681193179 95.57141560362652,255.68902891752077 97.01876823045313,255.39482798162499 98.08855060691712,255.17417695345648 98.87515529541997,255.00868849887047 99.18979717086768,254.49383452322218 99.22126135835424,253.8318771746999 98.67063807632076,252.14019696164178 98.34026410721708,251.01853036724788 97.96269385667983,249.7313630763092 97.58512360614259,248.49935118487338 97.19182126194937,247.37766113468388 96.82998310524272,245.9433584108192 96.7355905426084,244.85842927017075 96.68839426129125,244.6193761776667 96.56253751111217,243.57121643562277 96.43668076093309,242.6885507054394 96.29509191703983,241.30937654271838 96.12203888554359,239.96696986444294 95.57141560362652,235.18571129832708 95.42982675967505,233.76969797843776 95.30397000949597,232.51918313060014 95.2725058219512,232.09621283996967 95.14664907177212,231.26865929861378 95.02079232165124,230.73534493151237 94.97359604033409,229.13539202569518 95.02079232165124,228.17909131250053 95.03652441530721,226.76302099024178 94.98932813404826,225.5308465304406 95.00506022782065,224.3538359150698 94.97359604033409,223.1032534143742 94.92639975901693,221.81587968854 94.87920347764157,220.5468876959785 94.92639975901693,219.51697434876405 94.9578639465035,218.1008335439401 94.9578639465035,216.50076448259642 94.9578639465035,215.32369279218256 94.97359604033409,214.60641082662914 95.33543419704074,214.44088379933964 96.4209486671025,214.56962705643673 97.61658779380377,214.69837021824787 98.56051342003047,214.75354582985165 98.87515529541997,214.6431945890945 99.09540460823337,214.2937485317816 98.89088738913415,213.59485431184294 98.45038876356557,212.89595728488348 97.8997654816485,211.97635165682004 97.31767801212845,210.8176416457427 96.46814494853606,209.47499976027757 96.07484260422643,208.6657311537856 95.82312910386827,207.89324397273595 95.35116629075492,206.7896849076351 94.43870485207299,205.81486857788695 94.1240629767417,204.7112963302352 93.76222481997684,203.44217959187517 93.57343969470821,202.06269437602896 93.40038666327018,200.79355831701832 93.30599410063587,200.02103618296678 92.89695966255385,196.6917944059387 92.66097825596808,195.1651042175945 92.62951406848151,194.13504061732965 92.80256709991954,192.51635692211858 93.08574478782248,191.35751729780168 93.2745299130329,190.95284132457164 93.41611875698436,190.65853093461192 93.51051131961867,190.08830313688668 93.96674203895964,189.150182370111 94.1240629767417,188.41439783625538 94.45443694584537,187.78897853531817 94.5330974147655,187.08997783197265 94.26565182063496,186.11505110705912 94.1240629767417,185.12172391806962 94.13979507039767,184.73542847922363 93.87234947632533,183.92604477769055 93.32172619435005,182.8775193823676 92.94415594387101,182.08652235742193 92.72390663111582,181.18514926907665 92.47219313081587,179.91586087702308 92.23621172423009,178.49939767651085 92.06315869279206,177.45083956471353 91.1664293477661,176.43906697236525 91.21362562919967,176.089544163362 90.91471584746614,174.70984200545354 90.83605537860421,173.34852514804516 90.7416628159699,171.2881334178237 90.91471584746614,169.59565051949176 91.02484050381463,168.51024520855572 91.10350097273476,167.42483312250988 91.18216144153848,166.17384129685524 91.2765540041728,164.86764905058953 91.32375028548995,163.39587138242496 91.22935772285564,159.44040716643212 90.91471584746614,158.29974495488568 90.45848512812518,156.66232966596726 90.15957534644986,156.0367961587326 89.78200509597082,156.11038845288567 89.84493347106036,156.73592169534822 90.1123790651327,157.74780894006835 90.48994931566995,159.09085018723272 90.14384325279389,159.27482763235457 89.40443484549178,159.33002082789608 88.09867106255842,159.77156576167908 86.66705052944599,160.2683024718135 85.77032118447823,160.52586909612 85.12530533986865,160.78343533884618 84.92078812088585,161.26177163452667 85.04664487100672,161.7401066142047 85.32982255896786,162.5863883546117 85.1725016211858,163.28548755508382" stroke="#4DD2FF" stroke-dasharray="none" stroke-linecap="round" stroke-linejoin="round" stroke-width="0.5"><title>2026-06-14 15.1km</title><desc>9223370255419704134</desc></polyline></svg>